<?xml version="1.0" encoding="utf-8"?>
<!-- Generator: Adobe Illustrator 19.0.1, SVG Export Plug-In . SVG Version: 6.00 Build 0)  -->
<svg version="1.1" xmlns="http://www.w3.org/2000/svg" xmlns:xlink="http://www.w3.org/1999/xlink" x="0px" y="0px"
	 viewBox="0 0 1206.9 792" enable-background="new 0 0 1206.9 792" xml:space="preserve">
<g id="Layer_2" display="none">
	<rect display="inline" fill="#213C73" width="1206.9" height="792"/>
</g>
<g id="Layer_1">
	<g>
		<g>
			<path fill="#EFEFEF" d="M501.3,81v471H394.3l-0.1-318l-42.6,318h-75.9l-44.9-310.7L230.5,552H123.4V81h158.5
				c4.7,28.3,9.5,61.7,14.5,100.1l17.4,119.8L342,81H501.3z"/>
			<path fill="#EFEFEF" d="M550.5,81h86.7c57.8,0,96.9,2.2,117.4,6.7c20.5,4.5,37.1,15.9,50,34.2c12.9,18.3,19.3,47.6,19.3,87.7
				c0,36.7-4.6,61.3-13.7,73.9c-9.1,12.6-27.1,20.2-53.8,22.7c24.2,6,40.5,14.1,48.9,24.1c8.3,10.1,13.5,19.3,15.6,27.8
				c2,8.4,3.1,31.7,3.1,69.7V552H710.2V395.5c0-25.2-2-40.8-6-46.8c-4-6-14.4-9-31.3-9V552H550.5V81z M673,161.6v104.7
				c13.8,0,23.4-1.9,28.9-5.7c5.5-3.8,8.3-16,8.3-36.8V198c0-14.9-2.7-24.7-8-29.4C696.9,163.9,687.1,161.6,673,161.6z"/>
			<path fill="#EFEFEF" d="M871.4,81h204.2v94.3h-81.7v89.3h76.5v89.6h-76.5v103.6h89.9V552H871.4V81z"/>
		</g>
	</g>
	<g>
		<path fill="#EFEFEF" d="M187.8,674.4v-3.2c9.1-0.9,9.6-1.5,9.5-13.4l-0.3-45.9h-0.5L169,673.6h-2.3l-25.2-60.1h-0.2l-1.7,32.1
			c-0.5,9.2-0.5,14.2-0.3,18.7c0.2,5.4,2.9,6.2,10.4,7v3.2h-26.2v-3.2c6.5-0.8,8.8-2,9.6-6.8c0.6-3.9,1.2-8.9,2.1-20.6l1.6-23.4
			c1-14.6,0.5-15.1-9.8-16.1v-3.2h18.5l25.7,56.3l26-56.3h19.1v3.2c-9.9,0.9-10.7,1.1-10.4,12.7l1.1,40.8
			c0.3,11.9,0.7,12.5,10.5,13.4v3.2H187.8z"/>
		<path fill="#EFEFEF" d="M258.1,675.8c-1.7,0-4.1-1-5.3-2.1c-1.5-1.6-2.1-3.2-2.7-5.1c-4.5,3-9.9,7.2-13.3,7.2
			c-8,0-13.5-6.6-13.5-13.7c0-5.5,2.9-9,9.1-11.1c6.8-2.3,15-5.3,17.5-7.3v-2c0-8.1-3.8-12.7-9.5-12.7c-2.3,0-3.9,0.9-5.1,2.3
			c-1.5,1.5-2.5,3.9-3.4,7.4c-0.5,1.8-1.7,2.6-3.3,2.6c-2,0-5-2.3-5-4.8c0-1.7,1.5-2.9,3.6-4.5c3.2-2.3,10.5-6.6,16.9-7.9
			c3.4,0,6.8,1,9.2,3c3.9,3.3,5.1,7.9,5.1,13.7v20.9c0,5.1,2,6.8,3.9,6.8c1.4,0,2.9-0.6,4.1-1.2l1.1,2.9L258.1,675.8z M249.9,647.4
			c-2.4,1.2-7.8,3.6-10.1,4.7c-4.4,2-6.9,4.2-6.9,8.2c0,5.9,4.5,8.7,8,8.7c2.9-0.1,6.9-2,9-4.1V647.4z"/>
		<path fill="#EFEFEF" d="M288,635.8c3.4-5.6,8.2-11.9,13.6-11.9c3.8,0,6.5,2.9,6.5,5.6c0,2.3-1.5,4.5-3.6,5.5
			c-1.4,0.6-2.4,0.5-3-0.2c-1.6-1.7-2.9-2.4-4.7-2.4c-2.9,0-6.5,3.4-9,9.7v20.6c0,7.4,0.6,8.1,9.2,8.8v2.9h-25.9v-2.9
			c7-0.7,7.8-1.4,7.8-8.8v-23.3c0-7.4-0.6-7.9-7-8.8v-2.5c5.5-0.9,10.5-2.3,15.9-4.6v12.3H288z"/>
		<path fill="#EFEFEF" d="M348.3,675.8c-1.7,0-4.1-1-5.3-2.1c-1.5-1.6-2.1-3.2-2.7-5.1c-4.5,3-9.9,7.2-13.3,7.2
			c-8,0-13.5-6.6-13.5-13.7c0-5.5,2.9-9,9.1-11.1c6.8-2.3,15-5.3,17.5-7.3v-2c0-8.1-3.8-12.7-9.5-12.7c-2.3,0-3.9,0.9-5.1,2.3
			c-1.5,1.5-2.5,3.9-3.4,7.4c-0.5,1.8-1.7,2.6-3.3,2.6c-2,0-5-2.3-5-4.8c0-1.7,1.5-2.9,3.6-4.5c3.2-2.3,10.5-6.6,16.9-7.9
			c3.4,0,6.8,1,9.2,3c3.9,3.3,5.1,7.9,5.1,13.7v20.9c0,5.1,2,6.8,3.9,6.8c1.4,0,2.9-0.6,4.1-1.2l1.1,2.9L348.3,675.8z M340.1,647.4
			c-2.4,1.2-7.8,3.6-10.1,4.7c-4.4,2-6.9,4.2-6.9,8.2c0,5.9,4.5,8.7,8,8.7c2.9-0.1,6.9-2,9-4.1V647.4z"/>
		<path fill="#EFEFEF" d="M382.3,674.3c-1.9,1-3.7,1.5-4.7,1.5c-7.1,0-11-4.5-11-13.4v-32.8h-7.8l-0.5-1.1l3-3.3h5.2V617l7.3-7.4
			l1.6,0.2v15.4h12.7c1,1.1,0.7,3.6-0.7,4.4h-12v28.9c0,9.1,3.7,10.8,6.5,10.8c2.8,0,5.4-1.1,7-1.9l1,2.9L382.3,674.3z"/>
		<path fill="#EFEFEF" d="M425.5,674.4v-2.9c6.5-0.7,7.4-1.4,7.4-8.7v-18.7c0-9.2-3.5-13.9-11-13.9c-4.3,0-8.6,2.1-11.7,5.7v26.8
			c0,7.2,0.6,8,7.2,8.7v2.9h-23.9v-2.9c6.8-0.6,7.8-1.2,7.8-8.7v-53.7c0-7.1-0.2-7.7-7.7-8.3v-2.6c5.4-0.8,12.2-2.6,16.6-3.9v37.8
			c3.9-4.1,10-8.2,16.1-8.2c9.1,0,15.5,5.7,15.5,19.3v19.7c0,7.4,0.8,8.1,7.4,8.7v2.9H425.5z"/>
		<path fill="#EFEFEF" d="M504.4,649c0,18.1-13.3,26.8-24.4,26.8c-15.4,0-24.7-12.4-24.7-24.9c0-18.6,14.4-27,24.7-27
			C493.9,623.8,504.4,635,504.4,649z M465.8,647.3c0,14.2,6.2,24.8,15.4,24.8c7,0,12.7-5.2,12.7-20.6c0-13.2-5.3-23.9-15.1-23.9
			C471.8,627.6,465.8,634.5,465.8,647.3z"/>
		<path fill="#EFEFEF" d="M542.7,674.4v-2.9c6.6-0.7,7.4-1.6,7.4-9.3v-18.8c0-7.8-2.7-12.8-10.2-12.8c-4.5,0-8.9,2.8-12.3,5.7v26.5
			c0,7.7,0.7,8.1,7.3,8.8v2.9h-24.4v-2.9c7.7-0.8,8.2-1.4,8.2-8.8v-23.3c0-7.2-0.7-7.5-6.8-8.7v-2.6c5.4-1,10.7-2.4,15.7-4.6v9
			c2.3-1.7,4.7-3.4,7.5-5.3c3.2-2,6.1-3.4,9.3-3.4c8.9,0,14.5,6.2,14.5,17.1v21.7c0,7.7,0.6,8.1,7.1,8.8v2.9H542.7z"/>
		<path fill="#EFEFEF" d="M665,675.3c-1.4,0-2.6,0-3.9-0.1c-8.4-0.5-13.2-2.9-18.2-10.2c-3.9-5.5-8-12.5-11.4-18
			c-1.9-3.2-3.8-4.5-9.7-4.5h-3.6v17.9c0,9.6,1,10.2,10,10.9v3.2h-29.6v-3.2c9.2-0.7,10.2-1.4,10.2-10.9v-45.3
			c0-9.6-0.9-9.9-9.7-10.7v-3.2H627c8.2,0,13.7,1,18,3.8c4.5,2.9,7.4,8,7.4,14.8c0,9.7-6,15.7-14.3,19.3c1.9,3.7,6.6,11.3,10,16.3
			c4.1,5.9,6.4,8.8,9.1,11.7c3,3.4,5.6,4.6,8.1,5.3L665,675.3z M623.5,638.7c5.7,0,9.5-0.9,12.3-3.2c4.4-3.4,6.2-7.9,6.2-14
			c0-12.2-8-16.7-16.6-16.7c-3.3,0-5.2,0.5-6.1,1.1c-0.8,0.6-1.2,1.9-1.2,5v27.7H623.5z"/>
		<path fill="#EFEFEF" d="M709.1,664.8c-7.1,8.9-14.9,10.9-18.4,10.9c-13.9,0-22-11.3-22-24c0-7.8,2.8-14.6,7.4-19.7
			c4.6-5.2,10.7-8.2,16.6-8.2c9.3,0,16.9,8.3,16.9,17.1c0,2.3-0.6,3.2-2.6,3.6c-1.9,0.3-16,1.5-29.4,1.9
			c0.1,15.3,8.9,21.6,16.8,21.6c4.5,0,8.8-1.8,12.8-5.6L709.1,664.8z M678.3,641.9c6.3,0,12.5-0.1,19-0.3c2,0,2.7-0.7,2.7-2.3
			c0.1-5.9-3.7-11.3-9.9-11.3C684.9,628,679.9,632.7,678.3,641.9z"/>
		<path fill="#EFEFEF" d="M752.4,675.8c-1.7,0-4.1-1-5.3-2.1c-1.5-1.6-2.1-3.2-2.7-5.1c-4.5,3-9.9,7.2-13.3,7.2
			c-8,0-13.5-6.6-13.5-13.7c0-5.5,2.9-9,9.1-11.1c6.8-2.3,15-5.3,17.5-7.3v-2c0-8.1-3.8-12.7-9.5-12.7c-2.3,0-3.9,0.9-5.1,2.3
			c-1.5,1.5-2.5,3.9-3.4,7.4c-0.5,1.8-1.7,2.6-3.3,2.6c-2,0-5-2.3-5-4.8c0-1.7,1.5-2.9,3.6-4.5c3.2-2.3,10.5-6.6,16.9-7.9
			c3.4,0,6.8,1,9.2,3c3.9,3.3,5.1,7.9,5.1,13.7v20.9c0,5.1,2,6.8,3.9,6.8c1.4,0,2.9-0.6,4.1-1.2l1.1,2.9L752.4,675.8z M744.1,647.4
			c-2.4,1.2-7.8,3.6-10.1,4.7c-4.4,2-6.9,4.2-6.9,8.2c0,5.9,4.5,8.7,8,8.7c2.9-0.1,6.9-2,9-4.1V647.4z"/>
		<path fill="#EFEFEF" d="M764.9,674.4v-2.9c7.1-0.7,8.1-1.4,8.1-8.8v-53.3c0-7.7-0.7-8-7.8-8.6v-2.7c5.9-0.7,12.8-2.6,16.7-3.9
			v68.5c0,7.4,0.9,8.1,8.1,8.8v2.9H764.9z"/>
		<path fill="#EFEFEF" d="M878.7,656.6c-0.7,3.7-2.9,14.3-3.9,17.8h-54.3v-3.2c10.2-0.8,11.1-1.7,11.1-10.8v-44.8
			c0-10.1-0.9-10.5-9.7-11.3v-3.2h50.2c0,2.8,0.6,10.5,0.9,16.2l-3.3,0.6c-1-4.7-2.1-7.2-3.6-9.7c-1.6-2.4-4.6-3.2-12.7-3.2h-8.6
			c-3.5,0-3.7,0.2-3.7,3.6v25.6h10.6c10.1,0,10.7-0.9,12.2-8.4h3.3v21.6H864c-1.5-8.1-2.3-8.8-12.1-8.8h-10.7V660
			c0,5.3,0.7,7.7,2.7,9.1c2.1,1.4,6.1,1.5,11.7,1.5c8.6,0,11.7-0.9,14.2-3.8c1.9-2.3,4.1-6.1,5.5-10.6L878.7,656.6z"/>
		<path fill="#EFEFEF" d="M914.7,638.5c-2.1-6.6-6.1-11.1-11.6-11.1c-4.3,0-7.3,3.4-7.3,7.8c0,5.1,4.5,7.7,9.6,9.8
			c8.4,3.5,14.2,7.5,14.2,15.3c0,10.2-9.6,15.5-18.6,15.5c-5.7,0-10.9-2.1-13-3.8c-0.8-1.6-1.8-9.2-1.8-13.3l2.9-0.6
			c2,7.4,7.1,14,13.9,14c4.2,0,8-3.2,8-7.9c0-5-3.3-7.7-8.9-10.2c-6.8-3.2-14.1-6.9-14.1-15.5c0-7.9,6.8-14.5,17.1-14.5
			c4.6,0,7.7,1,10,1.9c0.9,2.6,2.1,9.2,2.5,12L914.7,638.5z"/>
		<path fill="#EFEFEF" d="M948.3,674.3c-1.9,1-3.7,1.5-4.7,1.5c-7.1,0-11-4.5-11-13.4v-32.8h-7.8l-0.5-1.1l3-3.3h5.2V617l7.3-7.4
			l1.6,0.2v15.4h12.7c1,1.1,0.7,3.6-0.7,4.4h-12v28.9c0,9.1,3.7,10.8,6.5,10.8c2.8,0,5.4-1.1,7-1.9l1,2.9L948.3,674.3z"/>
		<path fill="#EFEFEF" d="M996.6,675.8c-1.7,0-4.1-1-5.3-2.1c-1.5-1.6-2.1-3.2-2.7-5.1c-4.5,3-9.9,7.2-13.3,7.2
			c-8,0-13.5-6.6-13.5-13.7c0-5.5,2.9-9,9.1-11.1c6.8-2.3,15-5.3,17.5-7.3v-2c0-8.1-3.8-12.7-9.5-12.7c-2.3,0-3.9,0.9-5.1,2.3
			c-1.5,1.5-2.5,3.9-3.4,7.4c-0.5,1.8-1.7,2.6-3.3,2.6c-2,0-5-2.3-5-4.8c0-1.7,1.5-2.9,3.6-4.5c3.2-2.3,10.5-6.6,16.9-7.9
			c3.4,0,6.8,1,9.2,3c3.9,3.3,5.1,7.9,5.1,13.7v20.9c0,5.1,2,6.8,3.9,6.8c1.4,0,2.9-0.6,4.1-1.2l1.1,2.9L996.6,675.8z M988.4,647.4
			c-2.4,1.2-7.8,3.6-10.1,4.7c-4.4,2-6.9,4.2-6.9,8.2c0,5.9,4.5,8.7,8,8.7c2.9-0.1,6.9-2,9-4.1V647.4z"/>
		<path fill="#EFEFEF" d="M1030.6,674.3c-1.9,1-3.7,1.5-4.7,1.5c-7.1,0-11-4.5-11-13.4v-32.8h-7.8l-0.5-1.1l3-3.3h5.2V617l7.3-7.4
			l1.6,0.2v15.4h12.7c1,1.1,0.7,3.6-0.7,4.4h-12.1v28.9c0,9.1,3.7,10.8,6.5,10.8c2.8,0,5.4-1.1,7-1.9l1,2.9L1030.6,674.3z"/>
		<path fill="#EFEFEF" d="M1082.9,664.8c-7.1,8.9-14.9,10.9-18.4,10.9c-13.9,0-22-11.3-22-24c0-7.8,2.8-14.6,7.4-19.7
			c4.6-5.2,10.7-8.2,16.6-8.2c9.3,0,16.9,8.3,16.9,17.1c0,2.3-0.6,3.2-2.6,3.6c-1.9,0.3-16,1.5-29.4,1.9
			c0.1,15.3,8.9,21.6,16.8,21.6c4.5,0,8.8-1.8,12.8-5.6L1082.9,664.8z M1052,641.9c6.3,0,12.5-0.1,19-0.3c2,0,2.7-0.7,2.7-2.3
			c0.1-5.9-3.7-11.3-9.9-11.3C1058.7,628,1053.7,632.7,1052,641.9z"/>
	</g>
</g>
</svg>
